<?xml version="1.0" encoding="UTF-8"?>
<!DOCTYPE svg PUBLIC "-//W3C//DTD SVG 1.1//EN" "http://www.w3.org/Graphics/SVG/1.1/DTD/svg11.dtd">
<!-- Creator: CorelDRAW X7 -->
<svg xmlns="http://www.w3.org/2000/svg" xml:space="preserve" width="635mm" height="338.667mm" version="1.1" style="shape-rendering:geometricPrecision; text-rendering:geometricPrecision; image-rendering:optimizeQuality; fill-rule:evenodd; clip-rule:evenodd"
viewBox="0 0 63500 33867"
 xmlns:xlink="http://www.w3.org/1999/xlink">
 <defs>
  <style type="text/css">
   <![CDATA[
    .str1 {stroke:#332C2B;stroke-width:423.33}
    .str0 {stroke:#332C2B;stroke-width:423.33;stroke-linecap:round;stroke-linejoin:round}
    .fil14 {fill:#F29D63}
    .fil11 {fill:#EF8641}
    .fil9 {fill:#D6EDF1}
    .fil18 {fill:#15769E}
    .fil4 {fill:#009B4C}
    .fil15 {fill:#FFF582;fill-opacity:0.380392}
    .fil7 {fill:#8FC666;fill-opacity:0.380392}
    .fil19 {fill:#26A4DA;fill-opacity:0.380392}
    .fil8 {fill:#FEFEFE;fill-opacity:0.541176}
    .fil16 {fill:#17A0DC;fill-opacity:0.619608}
    .fil1 {fill:#FEFEFE;fill-opacity:0.690196}
    .fil6 {fill:#FEFEFE;fill-opacity:0.831373}
    .fil3 {fill:#FFF582;fill-opacity:0.960784}
    .fil13 {fill:#D59961;fill-opacity:0.960784}
    .fil20 {fill:#E97742;fill-opacity:0.960784}
    .fil2 {fill:#E97742}
    .fil0 {fill:#D6EDF1}
    .fil10 {fill:#D6EDF1}
    .fil12 {fill:#B95B30}
    .fil17 {fill:#065A7E}
    .fil5 {fill:url(#id0)}
   ]]>
  </style>
  <radialGradient id="id0" gradientUnits="userSpaceOnUse" gradientTransform="matrix(1 -0 -0 0.267051 0 14487)" cx="11408.9" cy="19765.1" r="8738.95" fx="11408.9" fy="19765.1">
   <stop offset="0" style="stop-opacity:1; stop-color:#18A744"/>
   <stop offset="1" style="stop-opacity:1; stop-color:#09AB53"/>
  </radialGradient>
 </defs>
 <g id="Layer_x0020_1">
  <metadata id="CorelCorpID_0Corel-Layer"/>
  <path class="fil0 str0" d="M14619 12159c3565,1308 6110,4733 6110,8752 0,5147 -4173,9320 -9320,9320 -5147,0 -9320,-4173 -9320,-9320 0,-4019 2544,-7444 6110,-8752l0 -4511 6420 0 0 4511z"/>
  <path class="fil1" d="M9020 7877l0 0c118,0 214,96 214,214l0 4788c0,118 -96,214 -214,214l0 0c-117,0 -214,-96 -214,-214l0 -4788c0,-118 97,-214 214,-214z"/>
  <path class="fil1" d="M9725 9539l0 0c117,0 213,96 213,214l0 4250c0,118 -96,214 -213,214l0 0c-118,0 -214,-96 -214,-214l0 -4250c0,-118 96,-214 214,-214z"/>
  <polygon class="fil2 str0" points="8165,5161 14769,5161 13701,11621 9325,11608 "/>
  <path class="fil3" d="M12132 7730c156,0 283,127 283,283 0,157 -127,284 -283,284 -157,0 -284,-127 -284,-284 0,-156 127,-283 284,-283z"/>
  <path class="fil4" d="M20115 19733c21,249 33,501 33,756 0,4826 -3913,8739 -8739,8739 -4827,0 -8739,-3913 -8739,-8739 0,-255 11,-507 33,-756 383,1195 4134,2133 8706,2133 4572,0 8323,-938 8706,-2133z"/>
  <path class="fil5" d="M11409 17198c4826,0 8739,1045 8739,2334 0,1289 -3913,2334 -8739,2334 -4827,0 -8739,-1045 -8739,-2334 0,-1289 3912,-2334 8739,-2334z"/>
  <path class="fil6" d="M15296 13290c0,0 2236,745 3210,2923 777,1736 -4082,-2694 -3210,-2923z"/>
  <path class="fil7" d="M11237 22953c505,0 914,409 914,914 0,505 -409,914 -914,914 -505,0 -914,-409 -914,-914 0,-505 409,-914 914,-914z"/>
  <path class="fil7" d="M14095 24357c905,0 1639,733 1639,1639 0,905 -734,1639 -1639,1639 -905,0 -1639,-734 -1639,-1639 0,-906 734,-1639 1639,-1639z"/>
  <path class="fil7" d="M7817 24811c645,0 1168,523 1168,1168 0,645 -523,1168 -1168,1168 -645,0 -1168,-523 -1168,-1168 0,-645 523,-1168 1168,-1168z"/>
  <path class="fil7" d="M5733 22437c505,0 914,409 914,914 0,504 -409,913 -914,913 -505,0 -914,-409 -914,-913 0,-505 409,-914 914,-914z"/>
  <path class="fil8" d="M13965 28181c-864,319 -1798,493 -2773,493 -4424,0 -8011,-3587 -8011,-8011 0,-3308 2004,-6146 4864,-7370 -30,13 -59,26 -89,39 -1973,1520 -3244,3906 -3244,6590 0,4592 3722,8314 8314,8314 315,0 626,-18 932,-52l7 -3z"/>
  <path class="fil7" d="M16395 22128c560,0 1014,453 1014,1013 0,560 -454,1014 -1014,1014 -560,0 -1014,-454 -1014,-1014 0,-560 454,-1013 1014,-1013z"/>
  <path class="fil9 str0" d="M31158 9545l0 17641c0,2147 -1449,3904 -3219,3904l0 0c-1770,0 -3219,-1757 -3219,-3904l0 -17641c39,5 78,8 118,8l6202 0c40,0 79,-3 118,-8z"/>
  <path class="fil3" d="M10143 10218c194,0 352,157 352,352 0,194 -158,351 -352,351 -194,0 -351,-157 -351,-351 0,-195 157,-352 351,-352z"/>
  <path class="fil3" d="M13499 6021c195,0 352,157 352,351 0,195 -157,352 -352,352 -194,0 -351,-157 -351,-352 0,-194 157,-351 351,-351z"/>
  <path class="fil3" d="M9846 5786c194,0 352,158 352,352 0,194 -158,352 -352,352 -194,0 -352,-158 -352,-352 0,-194 158,-352 352,-352z"/>
  <path class="fil3" d="M12933 10475c194,0 351,158 351,352 0,194 -157,352 -351,352 -194,0 -352,-158 -352,-352 0,-194 158,-352 352,-352z"/>
  <path class="fil3" d="M11800 6128c156,0 283,127 283,283 0,157 -127,284 -283,284 -157,0 -284,-127 -284,-284 0,-156 127,-283 284,-283z"/>
  <path class="fil3" d="M10354 8443c156,0 283,127 283,284 0,156 -127,283 -283,283 -157,0 -283,-127 -283,-283 0,-157 126,-284 283,-284z"/>
  <path class="fil3" d="M11546 9371c156,0 283,127 283,284 0,156 -127,283 -283,283 -157,0 -284,-127 -284,-283 0,-157 127,-284 284,-284z"/>
  <path class="fil10 str1" d="M7609 7648l7599 0c474,0 862,388 862,861l0 0c0,474 -388,862 -862,862l-7599 0c-474,0 -862,-388 -862,-862l0 0c0,-473 388,-861 862,-861z"/>
  <path class="fil11" d="M30532 12552c13,131 19,264 19,399l0 13947c0,1840 -1175,3346 -2612,3346l0 0c-1437,0 -2612,-1506 -2612,-3346l0 -13947c0,-145 7,-288 21,-428 77,239 1211,428 2600,428 1332,0 2430,-174 2584,-399z"/>
  <polygon class="fil12 str0" points="24713,4981 31165,4981 30122,11096 25846,11084 "/>
  <path class="fil13" d="M29113 9396c273,0 495,215 495,480 0,265 -222,480 -495,480 -274,0 -496,-215 -496,-480 0,-265 222,-480 496,-480z"/>
  <path class="fil13" d="M26646 9768c189,0 343,149 343,333 0,184 -154,333 -343,333 -190,0 -344,-149 -344,-333 0,-184 154,-333 344,-333z"/>
  <path class="fil13" d="M29708 5795c310,0 561,243 561,543 0,299 -251,543 -561,543 -309,0 -560,-244 -560,-543 0,-300 251,-543 560,-543z"/>
  <path class="fil13" d="M26593 7994c314,0 569,247 569,551 0,304 -255,551 -569,551 -314,0 -569,-247 -569,-551 0,-304 255,-551 569,-551z"/>
  <path class="fil13" d="M27897 6472c305,0 551,239 551,533 0,295 -246,534 -551,534 -304,0 -550,-239 -550,-534 0,-294 246,-533 550,-533z"/>
  <path class="fil13" d="M29204 7272c286,0 518,225 518,503 0,277 -232,502 -518,502 -287,0 -519,-225 -519,-502 0,-278 232,-503 519,-503z"/>
  <path class="fil13" d="M26425 5532c275,0 499,216 499,482 0,267 -224,483 -499,483 -275,0 -498,-216 -498,-483 0,-266 223,-482 498,-482z"/>
  <ellipse class="fil14" cx="27948" cy="12497" rx="2603" ry="454"/>
  <path class="fil15" d="M29434 16521c366,0 662,282 662,630 0,347 -296,629 -662,629 -366,0 -663,-282 -663,-629 0,-348 297,-630 663,-630z"/>
  <path class="fil15" d="M27262 13220c366,0 663,282 663,630 0,347 -297,629 -663,629 -366,0 -663,-282 -663,-629 0,-348 297,-630 663,-630z"/>
  <path class="fil15" d="M26950 18743c447,0 810,344 810,769 0,425 -363,770 -810,770 -447,0 -810,-345 -810,-770 0,-425 363,-769 810,-769z"/>
  <path class="fil15" d="M29740 22043c366,0 663,282 663,630 0,347 -297,629 -663,629 -366,0 -663,-282 -663,-629 0,-348 297,-630 663,-630z"/>
  <path class="fil15" d="M27387 23364c468,0 847,361 847,806 0,444 -379,805 -847,805 -469,0 -848,-361 -848,-805 0,-445 379,-806 848,-806z"/>
  <rect class="fil9 str0" transform="matrix(1.74542E-014 0.354518 -0.659033 9.38924E-015 32135.1 8038.44)" width="4267" height="12734" rx="2134" ry="2134"/>
  <path class="fil9 str0" d="M41280 7718l2043 0 0 -4054 11739 0 0 4054 2043 0c2383,0 4333,1950 4333,4333l0 15825c0,2383 -1950,4333 -4333,4333l-15825 0c-2383,0 -4332,-1950 -4332,-4333l0 -15825c0,-2383 1949,-4333 4332,-4333z"/>
  <path class="fil16" d="M38209 13612c150,-287 5010,-518 10984,-518l15 0c-5982,0 -10849,231 -10999,518z"/>
  <path class="fil17" d="M60180 13665l0 13621c0,2138 -1749,3888 -3887,3888l-14201 0c-2138,0 -3887,-1750 -3887,-3888l0 -13660c0,294 4926,532 11003,532 5803,0 10557,-217 10972,-493z"/>
  <ellipse class="fil18" cx="49193" cy="13626" rx="10987" ry="532"/>
  <path class="fil19" d="M41280 28196c551,0 998,425 998,948 0,524 -447,948 -998,948 -550,0 -997,-424 -997,-948 0,-523 447,-948 997,-948z"/>
  <path class="fil19" d="M44489 26614c1102,0 1995,849 1995,1896 0,1047 -893,1895 -1995,1895 -1102,0 -1995,-848 -1995,-1895 0,-1047 893,-1896 1995,-1896z"/>
  <path class="fil19" d="M53035 23646c551,0 998,424 998,947 0,524 -447,948 -998,948 -551,0 -997,-424 -997,-948 0,-523 446,-947 997,-947z"/>
  <path class="fil19" d="M46946 18456c551,0 998,424 998,948 0,523 -447,948 -998,948 -551,0 -997,-425 -997,-948 0,-524 446,-948 997,-948z"/>
  <path class="fil19" d="M42047 16180c846,0 1531,651 1531,1454 0,804 -685,1455 -1531,1455 -845,0 -1531,-651 -1531,-1455 0,-803 686,-1454 1531,-1454z"/>
  <path class="fil19" d="M43656 19280c551,0 998,424 998,948 0,523 -447,948 -998,948 -551,0 -997,-425 -997,-948 0,-524 446,-948 997,-948z"/>
  <path class="fil19" d="M55219 26365c755,0 1368,582 1368,1300 0,718 -613,1300 -1368,1300 -756,0 -1369,-582 -1369,-1300 0,-718 613,-1300 1369,-1300z"/>
  <path class="fil19" d="M52388 27379c551,0 997,424 997,948 0,523 -446,947 -997,947 -551,0 -998,-424 -998,-947 0,-524 447,-948 998,-948z"/>
  <path class="fil19" d="M57924 24848c551,0 998,424 998,948 0,523 -447,947 -998,947 -551,0 -998,-424 -998,-947 0,-524 447,-948 998,-948z"/>
  <polygon class="fil12 str0" points="43650,1340 54735,1340 52943,9906 45597,9889 "/>
  <path class="fil20" d="M51048 7986c294,0 533,231 533,516 0,286 -239,517 -533,517 -295,0 -534,-231 -534,-517 0,-285 239,-516 534,-516z"/>
  <path class="fil20" d="M47361 7892c251,0 454,197 454,440 0,243 -203,440 -454,440 -251,0 -454,-197 -454,-440 0,-243 203,-440 454,-440z"/>
  <path class="fil20" d="M51604 2866c378,0 684,297 684,662 0,366 -306,663 -684,663 -377,0 -683,-297 -683,-663 0,-365 306,-662 683,-662z"/>
  <path class="fil20" d="M47125 5548c323,0 585,254 585,567 0,312 -262,566 -585,566 -323,0 -585,-254 -585,-566 0,-313 262,-567 585,-567z"/>
  <path class="fil13" d="M49136 3574c416,0 753,326 753,729 0,403 -337,730 -753,730 -416,0 -753,-327 -753,-730 0,-403 337,-729 753,-729z"/>
  <path class="fil20" d="M46015 2891c282,0 510,222 510,495 0,273 -228,495 -510,495 -282,0 -511,-222 -511,-495 0,-273 229,-495 511,-495z"/>
  <path class="fil20" d="M49851 4970c439,0 794,344 794,769 0,425 -355,769 -794,769 -438,0 -793,-344 -793,-769 0,-425 355,-769 793,-769z"/>
  <rect class="fil9 str0" transform="matrix(2.877E-014 0.40006 -1.08629 1.05954E-014 56108.9 3663.9)" width="4267" height="12734" rx="2134" ry="2134"/>
  <path class="fil20" d="M49038 2418c268,0 486,211 486,471 0,259 -218,470 -486,470 -268,0 -485,-211 -485,-470 0,-260 217,-471 485,-471z"/>
  <path class="fil20" d="M51871 6306c295,0 533,231 533,517 0,285 -238,516 -533,516 -294,0 -533,-231 -533,-516 0,-286 239,-517 533,-517z"/>
  <path class="fil20" d="M49348 7063c438,0 794,344 794,769 0,425 -356,769 -794,769 -438,0 -793,-344 -793,-769 0,-425 355,-769 793,-769z"/>
 </g>
</svg>
